<?xml version="1.0" encoding="iso-8859-1"?>
<!-- Generator: Adobe Illustrator 19.0.0, SVG Export Plug-In . SVG Version: 6.00 Build 0)  -->
<svg version="1.1" id="Layer_1" xmlns="http://www.w3.org/2000/svg" xmlns:xlink="http://www.w3.org/1999/xlink" x="0px" y="0px"
	 viewBox="0 0 512 512" style="enable-background:new 0 0 512 512;" xml:space="preserve">
<polygon style="fill:#ACABB1;" points="146.803,0 365.187,0 441.872,144.05 441.307,146.808 366.89,512 145.1,512 70.128,144.091 
	"/>
<g>
	<path style="fill:#57565C;" d="M366.775,153.6l-51.628,253.388l-18.213,89.339h8.171h8.359h40.615L423.931,153.6H366.775z"/>
	<polygon style="fill:#57565C;" points="420.859,137.927 355.783,15.673 300.392,15.673 365.469,137.927 	"/>
</g>
<polygon style="fill:#933EC5;" points="210.019,251.298 225.693,251.298 225.693,181.29 259.129,181.29 259.129,165.616 
	225.693,165.616 225.693,136.359 210.019,136.359 210.019,165.616 179.717,165.616 179.717,181.29 210.019,181.29 "/>
<path d="M365.191,0H146.799l-35.863,67.371l13.835,7.365l31.44-59.063h126.424l69.607,130.764l-41.811,205.174l15.357,3.131
	l40.99-201.142h8.385l-2.236,10.975l15.357,3.128l2.873-14.103h8.386l-16.716,82.027l15.357,3.131l17.356-85.157h8.385
	l-69.842,342.727h-28.081V512h40.883l74.984-367.956L365.191,0z M300.391,15.673h55.387l65.077,122.253H365.47L300.391,15.673z"/>
<rect x="306.009" y="363.444" transform="matrix(0.9799 0.1997 -0.1997 0.9799 81.0359 -55.1419)" width="15.672" height="21.326"/>
<rect x="99.835" y="79.593" transform="matrix(-0.8827 -0.4699 0.4699 -0.8827 160.1419 221.1713)" width="15.673" height="22.016"/>
<polygon points="299.785,403.855 280.941,496.327 269.578,496.327 269.578,443.037 253.905,443.037 253.905,496.327 
	241.366,496.327 241.366,422.139 225.693,422.139 225.693,496.327 213.154,496.327 213.154,452.441 197.48,452.441 197.48,496.327 
	184.942,496.327 184.942,445.127 169.268,445.127 169.268,496.327 157.906,496.327 86.595,146.395 98.899,122.734 84.993,115.503 
	70.129,144.086 145.104,512 313.464,512 313.464,496.327 296.937,496.327 315.142,406.986 "/>
<g>
	<polygon style="fill:#FFFFFF;" points="322.467,111.734 278.459,29.257 243.456,29.257 243.456,44.931 269.057,44.931 
		308.639,119.111 	"/>
	<rect x="206.89" y="29.257" style="fill:#FFFFFF;" width="26.122" height="15.673"/>
</g>
<path d="M194.346,149.943h-30.302v47.02h30.302v70.008h47.02v-70.008h33.437v-47.02h-33.437v-29.257h-47.02V149.943z
	 M210.019,136.359h15.673v29.257h33.437v15.673h-33.437v70.008h-15.673V181.29h-30.302v-15.673h30.302V136.359z"/>
<rect x="357.858" y="175.282" transform="matrix(-0.9799 -0.1997 0.1997 -0.9799 676.2382 546.7391)" width="15.673" height="127.961"/>
<rect x="197.486" y="404.375" width="15.673" height="26.122"/>
<g>
</g>
<g>
</g>
<g>
</g>
<g>
</g>
<g>
</g>
<g>
</g>
<g>
</g>
<g>
</g>
<g>
</g>
<g>
</g>
<g>
</g>
<g>
</g>
<g>
</g>
<g>
</g>
<g>
</g>
</svg>
